<?xml version="1.0" standalone="no"?>
<!DOCTYPE svg PUBLIC "-//W3C//DTD SVG 20010904//EN"
 "http://www.w3.org/TR/2001/REC-SVG-20010904/DTD/svg10.dtd">
<svg version="1.0" xmlns="http://www.w3.org/2000/svg"
 width="880.000000pt" height="924.000000pt" viewBox="0 0 880.000000 924.000000"
 preserveAspectRatio="xMidYMid meet">
<metadata>
Created by potrace 1.16, written by Peter Selinger 2001-2019
</metadata>
<g transform="translate(0.000000,924.000000) scale(0.100000,-0.100000)"
fill="#ffffff" stroke="none">
<path d="M2501 8819 c-320 -34 -689 -163 -975 -341 -194 -122 -424 -322 -572
-499 -103 -124 -232 -324 -305 -472 -510 -1045 -230 -2245 838 -3586 322 -404
872 -967 1226 -1255 45 -37 50 -39 72 -25 118 72 764 700 1007 979 889 1021
1338 1968 1338 2820 0 520 -168 1027 -480 1445 -391 524 -998 870 -1639 935
-120 12 -389 11 -510 -1z m409 -359 c757 -56 1418 -541 1706 -1252 163 -403
193 -844 88 -1288 -147 -624 -520 -1283 -1124 -1987 -251 -292 -775 -818 -815
-818 -41 0 -554 516 -816 820 -724 839 -1137 1673 -1178 2379 -33 557 147
1075 517 1490 331 370 810 611 1302 655 132 12 177 12 320 1z"/>
<path d="M2545 7714 c-95 -17 -263 -73 -349 -116 -349 -176 -592 -495 -678
-888 -28 -127 -30 -377 -4 -495 101 -458 391 -802 808 -959 151 -56 239 -71
443 -71 204 0 291 14 445 72 538 202 880 752 821 1321 -59 581 -484 1038
-1055 1137 -109 19 -322 18 -431 -1z m445 -369 c102 -27 257 -105 343 -174
139 -111 257 -288 308 -463 30 -102 38 -323 16 -430 -74 -358 -341 -629 -702
-714 -85 -20 -264 -22 -355 -5 -365 71 -652 355 -725 721 -25 123 -17 313 19
433 99 331 357 570 696 642 86 19 311 13 400 -10z"/>
<path d="M8169 6720 c-15 -4 -72 -33 -128 -64 -121 -68 -153 -104 -159 -181
-9 -112 67 -195 178 -195 47 0 68 8 168 62 85 46 121 72 139 99 47 71 43 156
-10 216 -53 60 -122 83 -188 63z"/>
<path d="M7343 6210 c-26 -10 -238 -168 -322 -239 -87 -73 -110 -152 -72 -237
10 -23 36 -54 57 -70 33 -25 46 -29 105 -29 76 0 49 -16 293 170 162 124 186
153 186 235 0 103 -76 181 -176 179 -27 0 -59 -4 -71 -9z"/>
<path d="M6539 5460 c-20 -4 -51 -15 -68 -26 -40 -26 -182 -208 -250 -322 -50
-84 -52 -89 -49 -148 3 -49 10 -69 32 -99 39 -50 105 -79 164 -71 68 9 105 38
162 129 29 45 82 120 118 166 37 47 74 101 84 120 64 126 -50 275 -193 251z"/>
<path d="M6090 4419 c-36 -15 -69 -48 -92 -94 -17 -32 -19 -50 -14 -105 13
-138 88 -353 153 -438 50 -66 142 -88 218 -53 48 22 69 44 90 94 25 59 19 105
-24 194 -33 68 -66 178 -87 289 -6 34 -47 86 -84 105 -38 21 -118 24 -160 8z"/>
<path d="M6727 3505 c-73 -25 -119 -91 -119 -168 0 -65 15 -91 110 -195 48
-53 113 -129 145 -169 66 -81 103 -103 177 -103 79 0 133 37 165 112 33 81 16
129 -99 268 -125 153 -221 245 -271 259 -50 14 -61 13 -108 -4z"/>
<path d="M7317 2548 c-48 -13 -101 -65 -117 -114 -10 -30 -10 -60 0 -152 10
-80 11 -139 4 -202 -12 -118 -2 -162 46 -210 64 -64 151 -74 223 -26 74 50
100 131 99 316 0 153 -17 259 -52 313 -42 66 -125 97 -203 75z"/>
<path d="M2685 2235 c-74 -40 -105 -92 -105 -177 0 -64 29 -188 56 -243 45
-92 154 -131 241 -86 82 41 115 116 94 209 -7 32 -19 86 -26 122 -15 82 -36
122 -81 156 -45 35 -133 44 -179 19z"/>
<path d="M6829 1528 c-35 -23 -125 -72 -200 -109 -155 -77 -179 -102 -187
-194 -9 -114 87 -207 201 -192 76 10 382 173 438 234 40 42 49 66 49 125 0
107 -72 178 -181 178 -49 0 -64 -5 -120 -42z"/>
<path d="M3215 1501 c-111 -68 -129 -209 -39 -293 63 -58 401 -208 469 -208
60 0 132 46 161 102 20 39 18 122 -6 168 -25 49 -52 67 -170 114 -52 21 -136
60 -187 87 -77 41 -100 49 -145 49 -34 0 -64 -7 -83 -19z"/>
<path d="M5825 1200 c-27 -4 -113 -13 -190 -20 -162 -13 -213 -28 -254 -75
-86 -98 -54 -232 68 -287 47 -22 51 -22 331 8 194 21 234 39 271 119 39 85 11
186 -64 229 -51 29 -95 37 -162 26z"/>
<path d="M4304 1181 c-126 -59 -141 -240 -25 -317 41 -27 154 -44 398 -59 102
-7 115 -6 155 14 151 72 134 292 -26 335 -28 7 -121 19 -206 25 -85 7 -177 14
-205 17 -36 3 -61 -1 -91 -15z"/>
</g>
</svg>
